<?xml version="1.0" encoding="UTF-8"?><svg xmlns="http://www.w3.org/2000/svg" viewBox="0 0 2048 2048"><defs><style>.cls-1{stroke:#f0e2b7;stroke-width:27.45px;}.cls-1,.cls-2,.cls-3,.cls-4{fill:none;stroke-miterlimit:10;}.cls-1,.cls-3{stroke-linecap:round;}.cls-5{fill:#f0e2b7;}.cls-6{fill:#fff;}.cls-7{fill:#b45750;}.cls-8{fill:#56897b;}.cls-2{stroke-width:12.81px;}.cls-2,.cls-4{stroke:#fff;}.cls-3{stroke:#56897b;stroke-width:21.35px;}.cls-4{stroke-width:4.27px;}</style></defs><g id="_背景"><rect class="cls-5" x="0" width="2048" height="2048"/></g><g id="_お皿"><circle class="cls-6" cx="1051.6" cy="1021.53" r="762.42"/><g><path class="cls-1" d="M669.96,691.11c92.26-106.4,228.43-173.7,380.32-173.7,260.54,0,474.83,198.01,500.6,451.75"/><path class="cls-1" d="M595.51,822.29c-26.62,61.34-41.39,129.03-41.39,200.16,0,277.91,225.29,503.2,503.2,503.2,244.26,0,447.84-174.05,493.57-404.89"/></g></g><g id="_お皿のコピー"><g><path class="cls-7" d="M1164.91,1101.8c20.26-5.2,111.06,96.74,87.39,284.71-16.12,128.03-151.65,211.67-201.03,211.3-89.73-.68-176.45-45.65-201.28-188.7-24.43-140.69,86.45-281.5,105.45-282.6,15.12-.88,2.41,86.33,26.31,90.09,.76,.12,1.97,1.25,2.36-.16,6.18-22.26,44.45-81.76,86.46-83.09,12.03-.38,28.2,40.06,28.91,56.24,.17,3.93,4.21,5.38,6.77,5.17,15.02-1.26,39.77-88.11,58.66-92.96Z"/><path class="cls-2" d="M973.68,1186.11c2.21,15.58,6.56,117.13,96.88,191.46,88.45,72.78,88.45,162.63,88.45,176.78"/><path class="cls-2" d="M1115.19,1171.41c-31.69,74.8-89.9,122.72-107.45,130.52"/><path class="cls-4" d="M1099.48,1177.04c2.41,8.85,1.2,15.62-1.49,20.01"/><path class="cls-4" d="M987.68,1199.22c0,6.82-7.34,9.97-2.62,31.83"/><path class="cls-3" d="M1052.34,1627.35c14.01,72.64-.73,261.71-59.75,333.99"/><path class="cls-8" d="M1138.25,1733.15c111.16-46.05,110.54-166.62,92.98-166.62-33.65,0-119.65,177.67-92.98,166.62Z"/><path class="cls-8" d="M854.53,1661.27c15.04-11.46,109.46,20.42,130.65,91.81,11.12,37.45-158.19-70.83-130.65-91.81Z"/></g><path class="cls-7" d="M937.79,944.27c-20.26,5.2-111.06-96.74-87.39-284.71,16.12-128.03,151.65-211.67,201.03-211.3,89.73,.68,176.45,45.65,201.28,188.7,24.43,140.69-86.45,281.5-105.45,282.6-15.12,.88-2.41-86.33-26.31-90.09-.76-.12-1.97-1.25-2.36,.16-6.18,22.26-44.45,81.76-86.46,83.09-12.03,.38-28.2-40.06-28.91-56.24-.17-3.93-4.21-5.38-6.77-5.17-15.02,1.26-39.77,88.11-58.66,92.96Z"/><path class="cls-2" d="M1129.02,859.95c-2.21-15.58-6.56-117.13-96.88-191.46-88.45-72.78-88.45-162.63-88.45-176.78"/><path class="cls-2" d="M987.52,874.65c31.69-74.8,89.9-122.72,107.45-130.52"/><path class="cls-4" d="M1003.23,869.03c-2.41-8.85-1.2-15.62,1.49-20.01"/><path class="cls-4" d="M1115.03,846.84c0-6.82,7.34-9.97,2.62-31.83"/><path class="cls-3" d="M1050.37,418.71c-7.23-44.31,.99-222.7,54.13-304.47"/><path class="cls-8" d="M964.45,312.91c-111.16,46.05-110.54,166.62-92.98,166.62,33.65,0,119.65-177.67,92.98-166.62Z"/><path class="cls-8" d="M1248.18,384.79c-15.04,11.46-109.46-20.42-130.65-91.81-11.12-37.45,158.19,70.83,130.65,91.81Z"/></g><g id="_レイヤー_9"><path class="cls-6" d="M1750.4,381.18c40.93,0-19.48-155.3-50.95-135.84-31.47,19.46,81.21,112.74,107.9,91.39,41.37-33.1-122.88-54.63-124.38-7.83-1.5,46.8,127.75-49.3,110.33-74.16-29.97-42.79-96.43,126.44-42.9,126.44Z"/><path class="cls-6" d="M1939.72,1123.79c28.98,0,13.42-124.34-16.21-117.66-44.31,10,51.44,111.21,74.47,84.42,32.88-38.25-124.9-45.23-104.52-1.63,12.17,26.03,111.58-43.84,90.24-62.34-23.88-20.7-83.89,97.21-43.99,97.21Z"/><path class="cls-6" d="M325.83,403.02c28.74,.73-10.97-169.74-43.75-126.88-24.01,31.39,96.76,94.38,101,68.44,3.26-19.96-138.86-28.26-131.76-.2,10.34,40.85,143.31-35.65,113.42-66.32-26.19-26.88-82.23,123.86-38.92,124.96Z"/><path class="cls-6" d="M144.63,1064.09c40.24-11.69-64.62-145.81-84.5-114.33-19.88,31.48,133.86,81.46,139.43,53.47,6.51-32.69-153.87-9.42-140.4,22.82,13.81,33.05,146.84-70.11,95.42-101.15-31.47-18.99-55.76,152.49-9.94,139.18Z"/><path class="cls-6" d="M342.33,1848.94c63.19,24.22,16.88-193.04-21.15-158.9-20.31,18.23,95.83,151.45,128.87,117.62,35.6-36.45-155.65-83.18-160.76-41.09-5.1,42.1,179.16-29.21,151.8-61.23-32.54-38.07-136.96,128.95-98.76,143.59Z"/><path class="cls-6" d="M1747.49,1851.68c58.77-.09-22.13-196.26-46.98-180.69-44.63,27.97,135.61,163.4,152.78,120.48,18.83-47.07-223.88-67.68-210.08-18.56,14.38,51.17,209.68-66.71,179.18-89.59-54.93-41.2-125.31,168.43-74.9,168.36Z"/></g></svg>